#!OML:ASF X:\für Bonn\!DataBase\2005_08_10_Bjorn_Final\c3d\bjorn.ASF
:FULLY-SPECIFIED
:DEGREES
63
root 5.13463 23.6443 2.5042 5.4141 -6.37062 1.25052
lowerback 3.70792 1.40099 -0.453588
upperback 5.11346 1.89364 -1.78022
thorax 3.23202 0.963331 -1.59402
lowerneck 2.50551 -2.07336 -0.570757
upperneck 12.5145 -3.07816 2.97367
head 3.68026 -1.44017 1.0027
rclavicle -3.25013e-014 -6.36111e-015
rhumerus 3.46961 7.61715 -67.4926
rradius 110.438
rwrist -192.46
rhand 2.00375e-013 -1.70796e-012
rfingers 7.12502
rthumb 25.5904 -28.3008
lclavicle -3.25013e-014 -6.36111e-015
lhumerus 5.37002 -18.2187 59.0237
lradius 105.448
lwrist -20.0239
lhand -1.22133e-012 -1.36048e-012
lfingers 7.12502
lthumb 25.5904 28.3008
rfemur -19.1002 -14.1586 15.6763
rtibia 53.0788
rfoot 9.61298 11.5963
rtoes -14.0301
lfemur -17.6766 11.2105 -16.5467
ltibia 51.3028
lfoot 19.2517 -10.1154
ltoes -17.5645
64
root 5.13267 23.6594 2.65881 5.43279 -6.12331 1.42837
lowerback 4.45194 1.37647 -0.597597
upperback 5.29107 1.84969 -1.87694
thorax 2.9981 0.938654 -1.62993
lowerneck 2.8464 -2.06283 -0.512771
upperneck 12.3892 -3.06535 3.0524
head 3.57257 -1.43227 1.02162
rclavicle -2.69353e-014 3.18055e-015
rhumerus 3.55823 7.73526 -68.608
rradius 108.68
rwrist -191.401
rhand -5.59778e-013 -9.22361e-013
rfingers 7.12502
rthumb 25.5904 -28.3008
lclavicle -2.69353e-014 3.18055e-015
lhumerus 6.48828 -18.7534 59.7707
lradius 103.377
lwrist -20.3703
lhand -2.67167e-013 -9.6013e-013
lfingers 7.12502
lthumb 25.5904 28.3008
rfemur -20.1133 -14.1363 15.9514
rtibia 52.516
rfoot 8.21936 11.711
rtoes -14.7505
lfemur -18.8202 11.3179 -16.9084
ltibia 50.8218
lfoot 17.7623 -9.46523
ltoes -18.1494
65
root 5.13036 23.6694 2.81401 5.51028 -5.85873 1.63501
lowerback 5.20104 1.35567 -0.752211
upperback 5.40957 1.80661 -1.98643
thorax 2.70133 0.914262 -1.67332
lowerneck 3.12332 -2.0697 -0.454263
upperneck 12.4734 -3.07565 3.07125
head 3.55016 -1.43517 1.01997
rclavicle 1.2921e-014 -2.50469e-014
rhumerus 3.47597 7.76334 -69.7441
rradius 106.923
rwrist -190.63
rhand 7.66514e-013 -6.04305e-014
rfingers 7.12502
rthumb 25.5904 -28.3008
lclavicle 1.2921e-014 -2.50469e-014
lhumerus 7.45929 -19.4594 60.3987
lradius 101.23
lwrist -19.7374
lhand -5.08889e-013 -1.51871e-013
lfingers 7.12502
lthumb 25.5904 28.3008
rfemur -21.2386 -14.1246 16.2057
rtibia 51.8787
rfoot 6.8371 11.7582
rtoes -15.7317
lfemur -20.0196 11.351 -17.3183
ltibia 50.2616
lfoot 16.28 -8.84385
ltoes -18.4172
66
root 5.1295 23.6728 2.97128 5.73544 -5.55721 1.75736
lowerback 5.78612 1.31279 -0.839443
upperback 5.54251 1.73697 -2.03623
thorax 2.51147 0.877822 -1.68707
lowerneck 3.03433 -2.08456 -0.395226
upperneck 12.8404 -3.09647 2.98266
head 3.69365 -1.44062 0.979874
rclavicle 9.93923e-016 -5.96354e-015
rhumerus 3.47721 7.69849 -70.8005
rradius 104.973
rwrist -190.294
rhand 3.81667e-013 -1.46306e-012
rfingers 7.12502
rthumb 25.5904 -28.3008
lclavicle 9.93923e-016 -5.96354e-015
lhumerus 8.38026 -19.966 61.081
lradius 99.0772
lwrist -19.13
lhand -6.61555e-013 -1.55807e-012
lfingers 7.12502
lthumb 25.5904 28.3008
rfemur -22.5425 -14.1213 16.5761
rtibia 51.1625
rfoot 5.52795 11.7661
rtoes -16.8136
lfemur -21.3471 11.3291 -17.6639
ltibia 49.6089
lfoot 14.9063 -8.19622
ltoes -17.8097
67
root 5.12645 23.6638 3.13 5.97721 -5.20373 1.72808
lowerback 6.31688 1.24387 -0.786154
upperback 5.73883 1.63917 -2.01906
thorax 2.41976 0.830795 -1.70644
lowerneck 2.47384 -2.11334 -0.371116
upperneck 13.5603 -3.14408 2.84762
head 4.05461 -1.45501 0.925744
rclavicle 1.47101e-014 -4.77083e-015
rhumerus 3.53448 7.5681 -71.8054
rradius 103.082
rwrist -189.915
rhand 5.77271e-013 3.97569e-013
rfingers 7.12502
rthumb 25.5904 -28.3008
lclavicle 1.47101e-014 -4.77083e-015
lhumerus 9.22604 -20.4061 61.7704
lradius 97.1359
lwrist -18.4879
lhand -3.33958e-013 7.80429e-013
lfingers 7.12502
lthumb 25.5904 28.3008
rfemur -23.8006 -14.0812 17.0918
rtibia 50.3855
rfoot 4.29876 11.667
rtoes -16.8047
lfemur -22.6544 11.2507 -17.8178
ltibia 48.8771
lfoot 13.5317 -7.62383
ltoes -17.2879
68
root 5.12459 23.6412 3.29153 6.09671 -4.84164 1.80033
lowerback 6.89055 1.17233 -0.822579
upperback 6.01057 1.53522 -2.01155
thorax 2.38151 0.778089 -1.68442
lowerneck 2.20936 -2.14769 -0.373928
upperneck 13.8395 -3.19135 2.78692
head 4.20612 -1.475 0.902524
rclavicle -2.28602e-015 1.61016e-014
rhumerus 3.60182 7.40083 -72.7132
rradius 101.173
rwrist -189.551
rhand -6.13847e-013 3.75305e-013
rfingers 7.12502
rthumb 25.5904 -28.3008
lclavicle -2.28602e-015 1.61016e-014
lhumerus 10.0654 -20.7603 62.5931
lradius 95.1309
lwrist -17.9668
lhand 5.67729e-013 1.7334e-013
lfingers 7.12502
lthumb 25.5904 28.3008
rfemur -24.9012 -14.0481 17.413
rtibia 49.5767
rfoot 3.10572 11.627
rtoes -16.9545
lfemur -23.7601 11.1158 -18.0583
ltibia 48.0378
lfoot 12.383 -6.8964
ltoes -16.5484
69
root 5.12401 23.6065 3.45323 6.26171 -4.49107 1.8488
lowerback 7.45714 1.099 -0.80874
upperback 6.22799 1.43039 -2.00968
thorax 2.29313 0.726658 -1.6955
lowerneck 2.70446 -2.20894 -0.258402
upperneck 13.2711 -3.23841 2.65182
head 3.90135 -1.50694 0.840224
rclavicle -3.3694e-014 2.46493e-014
rhumerus 3.54306 7.25993 -73.5545
rradius 99.3069
rwrist -189.017
rhand -8.015e-013 -2.20571e-012
rfingers 7.12502
rthumb 25.5904 -28.3008
lclavicle -3.3694e-014 2.46493e-014
lhumerus 10.7809 -21.0422 63.49
lradius 92.9182
lwrist -18.1154
lhand -2.19458e-013 -2.7158e-012
lfingers 7.12502
lthumb 25.5904 28.3008
rfemur -26.0556 -14.0139 17.7386
rtibia 48.7398
rfoot 2.13773 11.5679
rtoes -17.0114
lfemur -24.9152 10.9637 -18.302
ltibia 47.1175
lfoot 11.5086 -6.45333
ltoes -16.2016
70
root 5.12337 23.5622 3.61519 6.46122 -4.1537 1.89759
lowerback 7.98935 1.03866 -0.770138
upperback 6.43877 1.34522 -2.01624
thorax 2.21909 0.686154 -1.72847
lowerneck 3.12662 -2.28312 -0.257202
upperneck 12.8743 -3.32132 2.65136
head 3.68193 -1.55438 0.842124
rclavicle -1.81888e-014 9.54166e-015
rhumerus 3.4339 7.01345 -74.3755
rradius 97.3454
rwrist -188.195
rhand 3.26007e-013 -1.8813e-012
rfingers 7.12502
rthumb 25.5904 -28.3008
lclavicle -1.81888e-014 9.54166e-015
lhumerus 11.5011 -21.5072 64.2929
lradius 90.4124
lwrist -17.7145
lhand -8.25354e-013 -1.4229e-012
lfingers 7.12502
lthumb 25.5904 28.3008
rfemur -27.2668 -13.9436 18.0451
rtibia 47.8866
rfoot 1.48292 11.4464
rtoes -16.8366
lfemur -26.1132 10.888 -18.5687
ltibia 46.1003
lfoot 10.8551 -6.43122
ltoes -16.2793
71
root 5.12458 23.5061 3.77953 6.68574 -3.84032 1.927
lowerback 8.476 0.980436 -0.719437
upperback 6.63591 1.26443 -1.9835
thorax 2.156 0.64742 -1.72619
lowerneck 3.42051 -2.33827 -0.322991
upperneck 12.7362 -3.38652 2.64863
head 3.58092 -1.59255 0.854355
rclavicle 1.39149e-015 7.35503e-015
rhumerus 3.28563 6.80755 -75.0347
rradius 95.3292
rwrist -187.117
rhand -1.12751e-012 1.75249e-012
rfingers 7.12502
rthumb 25.5904 -28.3008
lclavicle 1.39149e-015 7.35503e-015
lhumerus 12.0622 -22.045 65.0146
lradius 88.0678
lwrist -16.5145
lhand 1.13864e-012 1.18158e-012
lfingers 7.12502
lthumb 25.5904 28.3008
rfemur -28.4989 -13.7833 18.3434
rtibia 47.0141
rfoot 1.13227 11.2485
rtoes -16.5672
lfemur -27.3339 10.806 -18.8259
ltibia 45.038
lfoot 10.2933 -6.5975
ltoes -16.6778
